RBDS014runT25_grf
version=1
nRows=24
nColumns=19
inDegrees=no
endheader
time	ground_force_r_vx	ground_force_r_vy	ground_force_r_vz	ground_force_r_px	ground_force_r_py	ground_force_r_pz	ground_force_r_mx	ground_force_r_my	ground_force_r_mz	ground_force_l_vx	ground_force_l_vy	ground_force_l_vz	ground_force_l_px	ground_force_l_py	ground_force_l_pz	ground_force_l_mx	ground_force_l_my	ground_force_l_mz
      0.00000000	    -76.74566819	    899.86226425	    103.36725120	      2.19276998	      0.00000000	      1.05129781	      0.00000000	      6.56131717	      0.00000000	      0.00000000	      0.00000000	      0.00000000	      0.00000000	      0.00000000	      0.00000000	      0.00000000	      0.00000000	      0.00000000
      0.00100000	    -81.32290655	    909.74457375	     98.88856395	      2.19236402	      0.00000000	      1.05150147	      0.00000000	      6.71408813	      0.00000000	      0.00000000	      0.00000000	      0.00000000	      0.00000000	      0.00000000	      0.00000000	      0.00000000	      0.00000000	      0.00000000
      0.00200000	    -85.90014492	    919.62688325	     94.40987670	      2.19195806	      0.00000000	      1.05170512	      0.00000000	      6.86685908	      0.00000000	      0.00000000	      0.00000000	      0.00000000	      0.00000000	      0.00000000	      0.00000000	      0.00000000	      0.00000000	      0.00000000
      0.00300000	    -90.47738329	    929.50919274	     89.93118944	      2.19155209	      0.00000000	      1.05190877	      0.00000000	      7.01963003	      0.00000000	      0.00000000	      0.00000000	      0.00000000	      0.00000000	      0.00000000	      0.00000000	      0.00000000	      0.00000000	      0.00000000
      0.00400000	    -94.96951498	    939.45665023	     85.51201670	      2.19113004	      0.00000000	      1.05211161	      0.00000000	      7.17260799	      0.00000000	      0.00000000	      0.00000000	      0.00000000	      0.00000000	      0.00000000	      0.00000000	      0.00000000	      0.00000000	      0.00000000
      0.00500000	    -99.41909335	    949.43668171	     81.12260122	      2.19069993	      0.00000000	      1.05231404	      0.00000000	      7.32568945	      0.00000000	      0.00000000	      0.00000000	      0.00000000	      0.00000000	      0.00000000	      0.00000000	      0.00000000	      0.00000000	      0.00000000
      0.00600000	   -103.86867171	    959.41671319	     76.73318574	      2.19026983	      0.00000000	      1.05251647	      0.00000000	      7.47877090	      0.00000000	      0.00000000	      0.00000000	      0.00000000	      0.00000000	      0.00000000	      0.00000000	      0.00000000	      0.00000000	      0.00000000
      0.00700000	   -108.24247746	    969.43641268	     72.39529619	      2.18982601	      0.00000000	      1.05271827	      0.00000000	      7.63120782	      0.00000000	      0.00000000	      0.00000000	      0.00000000	      0.00000000	      0.00000000	      0.00000000	      0.00000000	      0.00000000	      0.00000000
      0.00800000	   -112.46473798	    979.53544818	     68.16045853	      2.18935476	      0.00000000	      1.05291880	      0.00000000	      7.78235567	      0.00000000	      0.00000000	      0.00000000	      0.00000000	      0.00000000	      0.00000000	      0.00000000	      0.00000000	      0.00000000	      0.00000000
      0.00900000	   -116.68699850	    989.63448367	     63.92562086	      2.18888350	      0.00000000	      1.05311933	      0.00000000	      7.93350352	      0.00000000	      0.00000000	      0.00000000	      0.00000000	      0.00000000	      0.00000000	      0.00000000	      0.00000000	      0.00000000	      0.00000000
      0.01000000	   -120.90925902	    999.73351917	     59.69078320	      2.18841225	      0.00000000	      1.05331986	      0.00000000	      8.08465136	      0.00000000	      0.00000000	      0.00000000	      0.00000000	      0.00000000	      0.00000000	      0.00000000	      0.00000000	      0.00000000	      0.00000000
      0.01100000	   -124.81070385	   1009.96570632	     55.66954472	      2.18788296	      0.00000000	      1.05351794	      0.00000000	      8.23166875	      0.00000000	      0.00000000	      0.00000000	      0.00000000	      0.00000000	      0.00000000	      0.00000000	      0.00000000	      0.00000000	      0.00000000
      0.01200000	   -128.71214868	   1020.19789347	     51.64830624	      2.18735366	      0.00000000	      1.05371602	      0.00000000	      8.37868615	      0.00000000	      0.00000000	      0.00000000	      0.00000000	      0.00000000	      0.00000000	      0.00000000	      0.00000000	      0.00000000	      0.00000000
      0.01300000	   -132.61359350	   1030.43008062	     47.62706776	      2.18682437	      0.00000000	      1.05391410	      0.00000000	      8.52570354	      0.00000000	      0.00000000	      0.00000000	      0.00000000	      0.00000000	      0.00000000	      0.00000000	      0.00000000	      0.00000000	      0.00000000
      0.01400000	   -136.24516882	   1040.75337086	     43.78196808	      2.18624567	      0.00000000	      1.05411025	      0.00000000	      8.66857539	      0.00000000	      0.00000000	      0.00000000	      0.00000000	      0.00000000	      0.00000000	      0.00000000	      0.00000000	      0.00000000	      0.00000000
      0.01500000	   -139.74180939	   1051.12221265	     40.02493780	      2.18564226	      0.00000000	      1.05430543	      0.00000000	      8.80937447	      0.00000000	      0.00000000	      0.00000000	      0.00000000	      0.00000000	      0.00000000	      0.00000000	      0.00000000	      0.00000000	      0.00000000
      0.01600000	   -143.23844996	   1061.49105443	     36.26790753	      2.18503885	      0.00000000	      1.05450061	      0.00000000	      8.95017355	      0.00000000	      0.00000000	      0.00000000	      0.00000000	      0.00000000	      0.00000000	      0.00000000	      0.00000000	      0.00000000	      0.00000000
      0.01700000	   -146.57628799	   1071.90213363	     32.61244256	      2.18440586	      0.00000000	      1.05469472	      0.00000000	      9.08825554	      0.00000000	      0.00000000	      0.00000000	      0.00000000	      0.00000000	      0.00000000	      0.00000000	      0.00000000	      0.00000000	      0.00000000
      0.01800000	   -149.59652094	   1082.39768763	     29.16010820	      2.18371370	      0.00000000	      1.05488666	      0.00000000	      9.22090335	      0.00000000	      0.00000000	      0.00000000	      0.00000000	      0.00000000	      0.00000000	      0.00000000	      0.00000000	      0.00000000	      0.00000000
      0.01900000	   -152.61675390	   1092.89324163	     25.70777385	      2.18302154	      0.00000000	      1.05507860	      0.00000000	      9.35355116	      0.00000000	      0.00000000	      0.00000000	      0.00000000	      0.00000000	      0.00000000	      0.00000000	      0.00000000	      0.00000000	      0.00000000
      0.02000000	   -155.63698685	   1103.38879564	     22.25543950	      2.18232938	      0.00000000	      1.05527054	      0.00000000	      9.48619897	      0.00000000	      0.00000000	      0.00000000	      0.00000000	      0.00000000	      0.00000000	      0.00000000	      0.00000000	      0.00000000	      0.00000000
      0.02100000	   -158.12386721	   1113.98578575	     19.13696521	      2.18153586	      0.00000000	      1.05545901	      0.00000000	      9.60894786	      0.00000000	      0.00000000	      0.00000000	      0.00000000	      0.00000000	      0.00000000	      0.00000000	      0.00000000	      0.00000000	      0.00000000
      0.02200000	   -160.61074757	   1124.58277585	     16.01849093	      2.18074234	      0.00000000	      1.05564748	      0.00000000	      9.73169676	      0.00000000	      0.00000000	      0.00000000	      0.00000000	      0.00000000	      0.00000000	      0.00000000	      0.00000000	      0.00000000	      0.00000000
      0.02300000	   -163.09762792	   1135.17976596	     12.90001665	      2.17994883	      0.00000000	      1.05583594	      0.00000000	      9.85444565	      0.00000000	      0.00000000	      0.00000000	      0.00000000	      0.00000000	      0.00000000	      0.00000000	      0.00000000	      0.00000000	      0.00000000
